<svg width="40" height="33" viewBox="0 0 40 33" fill="none" xmlns="http://www.w3.org/2000/svg">
<g clip-path="url(#clip0_1_282)" filter="url(#filter0_d_1_282)">
<path d="M29.8047 0.331363C30.6458 0.331363 31.4375 0.468366 32.1823 0.730955C32.9141 0.993545 33.5885 1.39314 34.1875 1.9206C34.7891 2.44806 35.2448 3.03717 35.5443 3.6788C35.8438 4.32044 36 5.01687 36 5.76353V13.954C36 14.7007 35.8438 15.3971 35.5443 16.0388C35.2448 16.6804 34.7891 17.2695 34.1875 17.797C33.5859 18.3244 32.9141 18.7126 32.1823 18.9866C31.4505 19.2492 30.6589 19.3862 29.8047 19.3862H23.8594C23.3203 19.9867 22.7318 20.5553 22.1068 21.0713C21.362 21.681 20.5703 22.229 19.7161 22.7131C18.8646 23.2086 17.9505 23.6401 16.9792 24.0078C16.0182 24.3754 14.987 24.6814 13.9063 24.9348C13.5938 25.0079 13.2578 24.9234 13.0286 24.7042C12.7057 24.3891 12.7396 23.905 13.1016 23.6196C13.6068 23.2291 14.0391 22.8295 14.3854 22.43C14.7214 22.0395 14.9974 21.6399 15.2031 21.2289V21.2175C15.4323 20.7745 15.6354 20.3224 15.8151 19.8703C15.875 19.7127 15.9349 19.5438 15.9948 19.3748H10.1953C9.35417 19.3748 8.5625 19.2378 7.81771 18.9752C7.08594 18.7126 6.41406 18.313 5.8125 17.7856C5.21094 17.2604 4.75521 16.669 4.45573 16.0273C4.15625 15.3743 4 14.6801 4 13.9426V5.75212C4 5.01458 4.15625 4.32044 4.45573 3.66739C4.75521 3.02576 5.21094 2.43664 5.8125 1.90918C6.41406 1.38172 7.08594 0.982128 7.81771 0.719539C8.55208 0.456949 9.34375 0.319946 10.1953 0.319946C16.7318 0.319946 23.263 0.331363 29.8047 0.331363ZM8.33333 11.1249L10.4219 10.9925C10.4661 11.3327 10.5599 11.5953 10.6979 11.7711C10.9245 12.0611 11.2474 12.2072 11.6693 12.2072C11.9818 12.2072 12.224 12.1319 12.3932 11.9835C12.5625 11.8351 12.6484 11.6615 12.6484 11.4674C12.6484 11.2825 12.5677 11.1135 12.4089 10.9674C12.2474 10.8189 11.8724 10.6819 11.2839 10.5495C10.3177 10.3326 9.63281 10.0403 9.22135 9.67725C8.80729 9.3142 8.59896 8.85524 8.59896 8.29124C8.59896 7.92361 8.70573 7.57426 8.91667 7.24773C9.13021 6.91893 9.44792 6.6609 9.8724 6.47367C10.2969 6.28643 10.8828 6.19281 11.625 6.19281C12.5365 6.19281 13.2292 6.36406 13.7057 6.70657C14.1823 7.04908 14.4661 7.59252 14.5573 8.33691L12.487 8.46021C12.4323 8.13369 12.3151 7.89621 12.1406 7.75008C11.9635 7.60166 11.7188 7.52631 11.4089 7.52631C11.1536 7.52631 10.9583 7.58111 10.8307 7.69071C10.7005 7.80031 10.6354 7.93275 10.6354 8.0903C10.6354 8.20447 10.6901 8.30494 10.7943 8.39856C10.8958 8.49218 11.1406 8.57895 11.5286 8.66343C12.4922 8.87122 13.1797 9.08586 13.5938 9.29821C14.0104 9.51285 14.3125 9.77772 14.5026 10.0951C14.6901 10.4102 14.7865 10.7664 14.7865 11.1592C14.7865 11.6181 14.6615 12.0451 14.4089 12.4333C14.1563 12.8215 13.8021 13.1183 13.349 13.3193C12.8958 13.5202 12.3255 13.6207 11.6354 13.6207C10.4245 13.6207 9.58594 13.3855 9.11979 12.9151C8.65885 12.447 8.39583 11.8488 8.33333 11.1249ZM16.0885 6.31611H18.9922L20.099 10.6888L21.2083 6.31611H24.099V13.5019H22.2969V8.02408L20.9062 13.5019H19.2734L17.888 8.02408V13.5019H16.0859V6.31611H16.0885ZM25.2057 11.1249L27.2969 10.9925C27.3411 11.3327 27.4349 11.5953 27.5729 11.7711C27.7995 12.0611 28.125 12.2072 28.5443 12.2072C28.8568 12.2072 29.099 12.1319 29.2682 11.9835C29.4375 11.8351 29.5234 11.6615 29.5234 11.4674C29.5234 11.2825 29.4427 11.1135 29.2839 10.9674C29.1224 10.8212 28.7474 10.6819 28.1589 10.5495C27.1927 10.3326 26.5078 10.0403 26.0964 9.67725C25.6849 9.3142 25.474 8.85524 25.474 8.29124C25.474 7.92361 25.5807 7.57426 25.7917 7.24773C26.0026 6.91893 26.3229 6.6609 26.7474 6.47367C27.1745 6.28643 27.7578 6.19281 28.5 6.19281C29.4115 6.19281 30.1042 6.36406 30.5807 6.70657C31.0573 7.04908 31.3411 7.59252 31.4323 8.33691L29.362 8.46021C29.3073 8.13369 29.1901 7.89621 29.0156 7.75008C28.8385 7.60166 28.5938 7.52631 28.2839 7.52631C28.0286 7.52631 27.8333 7.58111 27.7057 7.69071C27.5755 7.80031 27.5104 7.93275 27.5104 8.0903C27.5104 8.20447 27.5651 8.30494 27.6693 8.39856C27.7708 8.49218 28.0156 8.57895 28.4036 8.66343C29.3646 8.87122 30.0547 9.08586 30.4688 9.29821C30.8854 9.51285 31.1875 9.77772 31.3776 10.0951C31.5651 10.4102 31.6615 10.7664 31.6615 11.1592C31.6615 11.6181 31.5365 12.0451 31.2839 12.4333C31.0313 12.8215 30.6771 13.1183 30.224 13.3193C29.7708 13.5202 29.2005 13.6207 28.5104 13.6207C27.2995 13.6207 26.4609 13.3855 25.9948 12.9151C25.5313 12.447 25.2682 11.8488 25.2057 11.1249ZM10.2083 1.86808C9.58333 1.86808 9.00781 1.96398 8.49219 2.1535C7.97656 2.34302 7.49479 2.62616 7.0625 3.00521C6.63021 3.38425 6.30729 3.80439 6.09115 4.25878C5.875 4.71089 5.76823 5.2178 5.76823 5.76353V13.954C5.76823 14.502 5.8776 15.0067 6.09115 15.4588C6.30729 15.9109 6.63281 16.3333 7.0625 16.7124C7.50781 17.0914 7.98698 17.386 8.5026 17.5641C9.01823 17.7536 9.58333 17.8495 10.2083 17.8495H17.1615C17.6432 17.8495 18.0391 18.1966 18.0391 18.619C18.0391 18.7149 18.0156 18.7971 17.9922 18.8816C17.8359 19.3862 17.6693 19.8931 17.4766 20.3772C17.2734 20.8932 17.0573 21.3773 16.8151 21.8523C16.6953 22.0943 16.5521 22.3272 16.3958 22.5692C17.237 22.2427 18.0286 21.8637 18.7604 21.4435C19.5286 21.0006 20.25 20.5073 20.9089 19.9685C21.5807 19.4205 22.1823 18.8199 22.7344 18.1783C22.9036 17.9774 23.1667 17.8723 23.4297 17.8723H29.8047C30.4297 17.8723 30.9922 17.7764 31.5104 17.5869C32.026 17.3974 32.5078 17.1142 32.9505 16.7329C33.3828 16.3539 33.7057 15.9337 33.9219 15.4793C34.138 15.0272 34.2474 14.5226 34.2474 13.9746V5.78408C34.2474 5.23607 34.138 4.73144 33.9219 4.27933C33.7057 3.82722 33.3828 3.4048 32.9505 3.02576C32.5182 2.64671 32.0365 2.36129 31.5208 2.17405C31.0052 1.98453 30.4271 1.89091 29.8047 1.89091C23.5885 1.88863 16.4453 1.86808 10.2083 1.86808Z" fill="#FFA726"/>
</g>
<defs>
<filter id="filter0_d_1_282" x="0" y="0.319946" width="40" height="32.64" filterUnits="userSpaceOnUse" color-interpolation-filters="sRGB">
<feFlood flood-opacity="0" result="BackgroundImageFix"/>
<feColorMatrix in="SourceAlpha" type="matrix" values="0 0 0 0 0 0 0 0 0 0 0 0 0 0 0 0 0 0 127 0" result="hardAlpha"/>
<feOffset dy="4"/>
<feGaussianBlur stdDeviation="2"/>
<feComposite in2="hardAlpha" operator="out"/>
<feColorMatrix type="matrix" values="0 0 0 0 0 0 0 0 0 0 0 0 0 0 0 0 0 0 0.25 0"/>
<feBlend mode="normal" in2="BackgroundImageFix" result="effect1_dropShadow_1_282"/>
<feBlend mode="normal" in="SourceGraphic" in2="effect1_dropShadow_1_282" result="shape"/>
</filter>
<clipPath id="clip0_1_282">
<rect width="32" height="24.64" fill="white" transform="translate(4 0.319946)"/>
</clipPath>
</defs>
</svg>
