<svg width="30" height="30" viewBox="0 0 30 30" fill="none" xmlns="http://www.w3.org/2000/svg">
<g clip-path="url(#clip0_0_86)">
<path d="M8 27.5V13.75H5.5V6.25H12C11.8958 6.0625 11.8281 5.86458 11.7969 5.65625C11.7656 5.44792 11.75 5.22917 11.75 5C11.75 3.95833 12.1146 3.07292 12.8438 2.34375C13.5729 1.61458 14.4583 1.25 15.5 1.25C15.9792 1.25 16.4271 1.33854 16.8438 1.51562C17.2604 1.69271 17.6458 1.9375 18 2.25C18.3542 1.91667 18.7396 1.66667 19.1562 1.5C19.5729 1.33333 20.0208 1.25 20.5 1.25C21.5417 1.25 22.4271 1.61458 23.1562 2.34375C23.8854 3.07292 24.25 3.95833 24.25 5C24.25 5.22917 24.2292 5.44271 24.1875 5.64062C24.1458 5.83854 24.0833 6.04167 24 6.25H30.5V13.75H28V27.5H8ZM20.5 3.75C20.1458 3.75 19.849 3.86979 19.6094 4.10938C19.3698 4.34896 19.25 4.64583 19.25 5C19.25 5.35417 19.3698 5.65104 19.6094 5.89062C19.849 6.13021 20.1458 6.25 20.5 6.25C20.8542 6.25 21.151 6.13021 21.3906 5.89062C21.6302 5.65104 21.75 5.35417 21.75 5C21.75 4.64583 21.6302 4.34896 21.3906 4.10938C21.151 3.86979 20.8542 3.75 20.5 3.75ZM14.25 5C14.25 5.35417 14.3698 5.65104 14.6094 5.89062C14.849 6.13021 15.1458 6.25 15.5 6.25C15.8542 6.25 16.151 6.13021 16.3906 5.89062C16.6302 5.65104 16.75 5.35417 16.75 5C16.75 4.64583 16.6302 4.34896 16.3906 4.10938C16.151 3.86979 15.8542 3.75 15.5 3.75C15.1458 3.75 14.849 3.86979 14.6094 4.10938C14.3698 4.34896 14.25 4.64583 14.25 5ZM8 8.75V11.25H16.75V8.75H8ZM16.75 25V13.75H10.5V25H16.75ZM19.25 25H25.5V13.75H19.25V25ZM28 11.25V8.75H19.25V11.25H28Z" fill="#FFA726"/>
</g>
<defs>
<clipPath id="clip0_0_86">
<rect width="30" height="30" fill="white"/>
</clipPath>
</defs>
</svg>
